<?xml version="1.0" encoding="UTF-8"?><svg id="Layer_1" width="64" height="96" xmlns="http://www.w3.org/2000/svg" viewBox="0 0 64 96"><defs><style>.cls-1{fill:#c9a86a;}</style></defs><path class="cls-1" d="M32,95c-17.09,0-31-13.8-31-31v-32C1,14.8,14.91,1,32,1s31,13.8,31,31v32c0,17.2-13.91,31-31,31ZM31.87,7c-13.72,0-24.87,11.2-24.87,25v32c0,13.8,11.28,25,25,25s25-11.2,25-25v-32c0-13.8-11.41-25-25.13-25ZM42.19,60.96c.3-.03.79-.11,1.07-.17s.75-.18,1.03-.27.84-.31,1.24-.48,1.04-.5,1.41-.72,1.09-.68,1.58-1.03,1.36-1.02,1.93-1.49l2.81-2.34c.57-.48.65-1.33.17-1.9l-1.81-2.17c-.48-.57-1.33-.64-1.9-.16l-.05.04c-.57.48-1.5,1.26-2.07,1.74l-.13.11c-.57.48-1.42,1.15-1.9,1.49s-1.13.77-1.46.96-.79.42-1.02.51-.59.21-.8.26-.53.11-.72.12-.4.03-.47.03-.33-.04-.6-.08-.73-.18-1.03-.29-.75-.32-1-.45-.74-.44-1.1-.69-1.13-.83-1.7-1.3l-2.02-1.66c-.57-.47-1.52-1.24-2.1-1.69l-.3-.23c-.58-.46-1.36-1.03-1.73-1.28s-.98-.61-1.36-.82-1.02-.51-1.42-.67-.95-.36-1.23-.44-.74-.18-1.03-.23-.79-.11-1.1-.13-.8-.02-1.08,0-.74.06-1.03.11-.76.15-1.04.22-.85.27-1.25.43-1.05.46-1.45.67-1.12.65-1.61.98-1.36.99-1.94,1.46l-3.23,2.68c-.57.47-.65,1.33-.17,1.9l1.81,2.17c.48.57,1.33.64,1.9.16l.05-.04c.57-.48,1.5-1.26,2.08-1.73l.81-.66c.58-.47,1.35-1.06,1.72-1.31s.87-.56,1.12-.7.64-.32.87-.42.59-.21.8-.26.53-.11.72-.12.45-.02.58-.02.39.04.59.08.55.14.77.22.6.24.84.36.73.4,1.08.63,1.12.8,1.69,1.27l2.75,2.26c.57.47,1.52,1.22,2.09,1.66s1.33,1,1.68,1.22.94.59,1.32.79,1.01.51,1.41.67.96.36,1.24.44.75.18,1.03.23.78.11,1.1.13.67.03.79.03.46-.03.76-.06ZM32,47.51l-6.47-10.51h12.93l-6.46,10.51Z"/></svg>
